# xmcd
#
# Track frame offsets: 
#        150
#        18714
#        45746
#        70800
#        89763
#        141516
#        161291
#        216602
#
# Disc length: 3170 seconds
#
# Revision: 0
# Processed by: cddbd v1.5.2PL0 Copyright (c) Steve Scherf et al.
# Submitted via: ExactAudioCopy v0.99pb4
#
DISCID=7b0c6008
DTITLE=Climax Blues Band - Blues From The Attic
DYEAR=1993
DGENRE=Blues
TTITLE0=Don't Start Me Talkin'
TTITLE1=Fool For The Bright Lights
TTITLE2=Chasin' Change
TTITLE3=Take Me Back To Georgia
TTITLE4=So Many Roads
TTITLE5=The Seventh Son
TTITLE6=Watcha Feel
TTITLE7=Evil
EXTD=
EXTT0=
EXTT1=
EXTT2=
EXTT3=
EXTT4=
EXTT5=
EXTT6=
EXTT7=
PLAYORDER=
